<mxfile host="65bd71144e">
    <diagram id="5OlduUMGT2TOd3w5AiTd" name="Page-1">
        <mxGraphModel dx="1177" dy="1009" grid="0" gridSize="10" guides="1" tooltips="1" connect="1" arrows="1" fold="1" page="0" pageScale="1" pageWidth="827" pageHeight="1169" math="0" shadow="0">
            <root>
                <mxCell id="0"/>
                <mxCell id="1" parent="0"/>
                <mxCell id="4" style="edgeStyle=none;html=1;fillColor=#60a917;rounded=1;strokeWidth=2;strokeColor=#00CC00;" edge="1" parent="1">
                    <mxGeometry relative="1" as="geometry">
                        <mxPoint x="175" y="113" as="targetPoint"/>
                        <mxPoint x="45" y="113" as="sourcePoint"/>
                    </mxGeometry>
                </mxCell>
                <mxCell id="2" value="app" style="whiteSpace=wrap;html=1;fontStyle=1;shadow=1;labelBorderColor=none;rounded=1;strokeWidth=2;strokeColor=#00CC00;" vertex="1" parent="1">
                    <mxGeometry x="-6" y="410" width="185" height="99" as="geometry"/>
                </mxCell>
                <mxCell id="5" style="edgeStyle=none;html=1;fillColor=#6a00ff;strokeColor=#3700CC;rounded=1;strokeWidth=2;" edge="1" parent="1">
                    <mxGeometry relative="1" as="geometry">
                        <mxPoint x="176" y="173" as="targetPoint"/>
                        <mxPoint x="46" y="173" as="sourcePoint"/>
                    </mxGeometry>
                </mxCell>
                <mxCell id="6" value="app" style="whiteSpace=wrap;html=1;fontStyle=1;shadow=1;labelBorderColor=none;rounded=1;strokeWidth=2;strokeColor=#3700CC;" vertex="1" parent="1">
                    <mxGeometry x="-10" y="262" width="185" height="99" as="geometry"/>
                </mxCell>
                <mxCell id="7" style="edgeStyle=none;html=1;fillColor=#d80073;strokeColor=#A50040;rounded=1;strokeWidth=2;" edge="1" parent="1">
                    <mxGeometry relative="1" as="geometry">
                        <mxPoint x="175" y="49" as="targetPoint"/>
                        <mxPoint x="45" y="49" as="sourcePoint"/>
                    </mxGeometry>
                </mxCell>
                <mxCell id="8" value="app" style="whiteSpace=wrap;html=1;fontStyle=1;shadow=1;labelBorderColor=none;rounded=1;strokeWidth=2;strokeColor=#A50040;" vertex="1" parent="1">
                    <mxGeometry y="553" width="185" height="99" as="geometry"/>
                </mxCell>
                <mxCell id="9" style="edgeStyle=none;html=1;fillColor=#a20025;rounded=1;strokeWidth=2;strokeColor=#6F0000;" edge="1" parent="1">
                    <mxGeometry relative="1" as="geometry">
                        <mxPoint x="175" y="-20" as="targetPoint"/>
                        <mxPoint x="45" y="-20" as="sourcePoint"/>
                    </mxGeometry>
                </mxCell>
                <mxCell id="10" value="app" style="whiteSpace=wrap;html=1;fontStyle=1;shadow=1;labelBorderColor=none;rounded=1;strokeWidth=2;strokeColor=#6F0000;" vertex="1" parent="1">
                    <mxGeometry y="710" width="185" height="99" as="geometry"/>
                </mxCell>
                <mxCell id="11" style="edgeStyle=none;html=1;fillColor=#0050ef;rounded=1;strokeWidth=2;strokeColor=#001DBC;" edge="1" parent="1">
                    <mxGeometry relative="1" as="geometry">
                        <mxPoint x="175" y="-92" as="targetPoint"/>
                        <mxPoint x="45" y="-92" as="sourcePoint"/>
                    </mxGeometry>
                </mxCell>
                <mxCell id="12" value="app" style="whiteSpace=wrap;html=1;fontStyle=1;shadow=1;labelBorderColor=none;rounded=1;strokeWidth=2;strokeColor=#001DBC;" vertex="1" parent="1">
                    <mxGeometry y="879" width="185" height="99" as="geometry"/>
                </mxCell>
            </root>
        </mxGraphModel>
    </diagram>
</mxfile>